<svg width="18" height="18" viewBox="0 0 18 18" fill="none" xmlns="http://www.w3.org/2000/svg">
<g opacity="0.4">
<circle cx="9" cy="9" r="9" fill="#D9D9D9"/>
<path d="M8.7235 12.4054H8.74194H8.81567H9.25806C9.40553 12.4054 9.53456 12.4595 9.64516 12.5676L10.1797 13.0721C10.2903 13.1802 10.3456 13.3003 10.3456 13.4324V13.973C10.3456 14.1051 10.2903 14.2252 10.1797 14.3333L9.64516 14.8559C9.54685 14.952 9.41782 15 9.25806 15H8.74194C8.58218 15 8.45315 14.952 8.35484 14.8559L7.82028 14.3333C7.70968 14.2252 7.65438 14.1051 7.65438 13.973V13.4324C7.65438 13.3003 7.70968 13.1802 7.82028 13.0721L8.31797 12.6036C8.34255 12.5676 8.41014 12.5135 8.52074 12.4414H8.53917C8.6129 12.4174 8.67435 12.4054 8.7235 12.4054ZM9.79263 3C9.86636 3 9.9278 3.01201 9.97696 3.03604V3.05405H9.99539L11.5806 3.55856C11.6544 3.58258 11.722 3.62463 11.7834 3.68469L12.2995 4.18919C12.3487 4.23724 12.3856 4.28529 12.4101 4.33333L12.9631 5.37838C12.9877 5.41441 13 5.4985 13 5.63063V6.65766C13 6.77778 12.9877 6.85586 12.9631 6.89189L12.4101 7.93694C12.3856 7.98499 12.3487 8.03303 12.2995 8.08108L11.7834 8.6036C11.7588 8.62763 11.7097 8.65766 11.6359 8.69369L10.6037 9.1982C10.5791 9.22222 10.5545 9.23423 10.53 9.23423L9.79263 9.59459V10.8378C9.79263 10.982 9.73733 11.1081 9.62673 11.2162C9.52842 11.3123 9.40553 11.3604 9.25806 11.3604H8.74194C8.59447 11.3604 8.46544 11.3123 8.35484 11.2162C8.25653 11.1081 8.20737 10.982 8.20737 10.8378V9.34234V9.30631L8.18894 9.27027C8.18894 9.12613 8.2381 9.00601 8.33641 8.90991L8.35484 8.89189C8.46544 8.78378 8.59447 8.72973 8.74194 8.72973C8.75422 8.72973 8.76651 8.73574 8.7788 8.74775C8.79109 8.75976 8.80338 8.76577 8.81567 8.76577H9.14747L10.0138 8.31532L10.4194 7.91892L10.8618 7.05405V5.23423L10.4562 4.44144L9.66359 4.06306H7.78341L6.91705 4.47748L6.51152 4.89189L6.40092 5.09009H6.60369C6.75115 5.09009 6.87404 5.14414 6.97235 5.25225C7.08295 5.36036 7.13825 5.48649 7.13825 5.63063V6.65766C7.13825 6.8018 7.08295 6.92793 6.97235 7.03604C6.87404 7.14414 6.75115 7.1982 6.60369 7.1982H5.53456C5.3871 7.1982 5.25806 7.14414 5.14747 7.03604C5.04916 6.92793 5 6.8018 5 6.65766V5.63063C5 5.4985 5.01229 5.41441 5.03687 5.37838L5.58986 4.33333C5.61444 4.28529 5.65131 4.23724 5.70046 4.18919L6.21659 3.68469C6.26575 3.63664 6.3149 3.6006 6.36406 3.57658L7.41475 3.07207C7.48848 3.02402 7.56836 3 7.65438 3H9.75576H9.79263Z" fill="black"/>
</g>
</svg>
